# xmcd CD database file
#
# Track frame offsets:
#	150
#	34249
#	54643
#	80663
#	99629
#	120880
#	140567
#
# Disc length: 2814 seconds
#
# Revision: 0
# Processed by: cddbd v1.5.2PL0 Copyright (c) Steve Scherf et al.
# Submitted via: CDex 1.51
#
DISCID=5a0afc07
DTITLE=Toby Christensen and Brenda Harvey - Crystal Alchemy
DYEAR=1900
DGENRE=New Age
TTITLE0=Mystic Journey
TTITLE1=Jungle Dance
TTITLE2=Walkabout
TTITLE3=Play of the Pipestone
TTITLE4=Soul Trance
TTITLE5=Cave Dwellers
TTITLE6=Crystal Alchemy
EXTD=
EXTT0=
EXTT1=
EXTT2=
EXTT3=
EXTT4=
EXTT5=
EXTT6=
PLAYORDER=
